<svg width="48" height="48" viewBox="0 0 48 48" fill="none" xmlns="http://www.w3.org/2000/svg">
<g clip-path="url(#clip0_95_877)">
<path d="M12 23.2136V36.0003H24.7867L22.12 33.3336H14.6667V25.8803L12 23.2136Z" fill="#F3C901"/>
<path d="M46.4934 43.0532L42.6668 39.1732V42.6665H5.33344V37.1332H8.0001V34.9999H5.33344V26.1332H8.0001V23.9999H5.33344V15.4665H8.0001V13.3332H5.33344V5.87986L26.5868 27.0132V23.2532L4.94677 1.71986C4.76028 1.53182 4.52201 1.40358 4.26235 1.35149C4.00268 1.29939 3.73339 1.32581 3.4888 1.42737C3.2442 1.52892 3.0354 1.70102 2.88899 1.92171C2.74259 2.1424 2.66523 2.40169 2.66677 2.66653V43.9999C2.66677 44.3535 2.80725 44.6926 3.05729 44.9427C3.30734 45.1927 3.64648 45.3332 4.0001 45.3332H45.5468C45.8116 45.3347 46.0709 45.2574 46.2916 45.111C46.5123 44.9646 46.6844 44.7558 46.7859 44.5112C46.8875 44.2666 46.9139 43.9973 46.8618 43.7376C46.8097 43.478 46.6815 43.2397 46.4934 43.0532Z" fill="#F3C901"/>
<path d="M31.9999 40.0013H37.3333C38.0405 40.0013 38.7188 39.7203 39.2189 39.2202C39.719 38.7201 39.9999 38.0419 39.9999 37.3346V11.6013L36.9333 5.96128C36.6961 5.55037 36.3536 5.21018 35.9411 4.9758C35.5286 4.74142 35.061 4.62134 34.5866 4.62794C34.1014 4.63179 33.6265 4.76792 33.213 5.02167C32.7995 5.27541 32.4631 5.63716 32.2399 6.06794L29.3333 11.6279V37.3346C29.3333 38.0419 29.6142 38.7201 30.1143 39.2202C30.6144 39.7203 31.2927 40.0013 31.9999 40.0013ZM31.9999 12.2679L34.5866 7.24128L37.3333 12.2813V32.0013H31.9999V12.2679ZM31.9999 34.1746H37.3333V37.4279H31.9999V34.1746Z" fill="#F3C901"/>
</g>
<defs>
<clipPath id="clip0_95_877">
<rect width="48" height="48" fill="white"/>
</clipPath>
</defs>
</svg>
