<svg width="40" height="36" viewBox="0 0 40 36" fill="none" xmlns="http://www.w3.org/2000/svg">
<path d="M5.6 16L9.4 12.2C9.76667 11.8333 9.95 11.3667 9.95 10.8C9.95 10.2333 9.76667 9.76667 9.4 9.4C9.03333 9.03333 8.56667 8.85 8 8.85C7.43333 8.85 6.96667 9.03333 6.6 9.4L1.4 14.6C1 15 0.8 15.4667 0.8 16C0.8 16.5333 1 17 1.4 17.4L6.6 22.6C6.96667 22.9667 7.43333 23.15 8 23.15C8.56667 23.15 9.03333 22.9667 9.4 22.6C9.76667 22.2333 9.95 21.7667 9.95 21.2C9.95 20.6333 9.76667 20.1667 9.4 19.8L5.6 16ZM34.4 16L30.6 19.8C30.2333 20.1667 30.05 20.6333 30.05 21.2C30.05 21.7667 30.2333 22.2333 30.6 22.6C30.9667 22.9667 31.4333 23.15 32 23.15C32.5667 23.15 33.0333 22.9667 33.4 22.6L38.6 17.4C39 17 39.2 16.5333 39.2 16C39.2 15.4667 39 15 38.6 14.6L33.4 9.4C33.0333 9.03333 32.5667 8.85 32 8.85C31.4333 8.85 30.9667 9.03333 30.6 9.4C30.2333 9.76667 30.05 10.2333 30.05 10.8C30.05 11.3667 30.2333 11.8333 30.6 12.2L34.4 16ZM0 6V4C0 2.9 0.392 1.95867 1.176 1.176C1.96 0.393333 2.90133 0.00133333 4 0H36C37.1 0 38.042 0.392 38.826 1.176C39.61 1.96 40.0013 2.90133 40 4V6C40 6.56667 39.808 7.042 39.424 7.426C39.04 7.81 38.5653 8.00133 38 8C37.4347 7.99867 36.96 7.80667 36.576 7.424C36.192 7.04133 36 6.56667 36 6V4H4V6C4 6.56667 3.808 7.042 3.424 7.426C3.04 7.81 2.56533 8.00133 2 8C1.43467 7.99867 0.96 7.80667 0.576 7.424C0.192 7.04133 0 6.56667 0 6ZM14 36C13.4333 36 12.9587 35.808 12.576 35.424C12.1933 35.04 12.0013 34.5653 12 34V32H4C2.9 32 1.95867 31.6087 1.176 30.826C0.393333 30.0433 0.00133333 29.1013 0 28V26.05C0 25.4833 0.192 25.0167 0.576 24.65C0.96 24.2833 1.43467 24.1 2 24.1C2.56533 24.1 3.04067 24.2913 3.426 24.674C3.81133 25.0567 4.00267 25.532 4 26.1V28H36V26.05C36 25.4833 36.192 25.0167 36.576 24.65C36.96 24.2833 37.4347 24.1 38 24.1C38.5653 24.1 39.0407 24.2913 39.426 24.674C39.8113 25.0567 40.0027 25.532 40 26.1V28C40 29.1 39.6087 30.042 38.826 30.826C38.0433 31.61 37.1013 32.0013 36 32H28V34C28 34.5667 27.808 35.042 27.424 35.426C27.04 35.81 26.5653 36.0013 26 36H14Z" fill="#F3C901"/>
</svg>
