<svg width="48" height="48" viewBox="0 0 48 48" fill="none" xmlns="http://www.w3.org/2000/svg">
<path d="M35.2287 31.0264C38.1336 27.0625 39.4347 22.1479 38.8716 17.2659C38.3086 12.3839 35.9229 7.89446 32.192 4.69583C28.461 1.49721 23.6599 -0.174747 18.7492 0.0144722C13.8385 0.203692 9.18025 2.24013 5.7065 5.71636C2.23275 9.1926 0.199645 13.8523 0.0139396 18.7631C-0.171766 23.674 1.50362 28.4739 4.70492 32.2026C7.90621 35.9312 12.3973 38.3136 17.2798 38.8732C22.1622 39.4328 27.0758 38.1282 31.0377 35.2204H31.0347C31.1227 35.3404 31.2207 35.4554 31.3287 35.5654L42.8787 47.1154C43.4412 47.6784 44.2043 47.9948 45.0001 47.995C45.7959 47.9953 46.5593 47.6795 47.1222 47.1169C47.6851 46.5544 48.0015 45.7913 48.0018 44.9955C48.0021 44.1997 47.6862 43.4364 47.1237 42.8734L35.5737 31.3234C35.4665 31.2148 35.3512 31.1175 35.2287 31.0264ZM36.0027 19.4944C36.0027 21.6613 35.5759 23.8068 34.7467 25.8087C33.9175 27.8106 32.7021 29.6295 31.17 31.1617C29.6378 32.6939 27.8188 33.9093 25.817 34.7385C23.8151 35.5677 21.6695 35.9944 19.5027 35.9944C17.3359 35.9944 15.1903 35.5677 13.1884 34.7385C11.1865 33.9093 9.3676 32.6939 7.83543 31.1617C6.30326 29.6295 5.08788 27.8106 4.25868 25.8087C3.42948 23.8068 3.00269 21.6613 3.00269 19.4944C3.00269 15.1184 4.74108 10.9215 7.83543 7.82718C10.9298 4.73283 15.1266 2.99444 19.5027 2.99444C23.8788 2.99444 28.0756 4.73283 31.17 7.82718C34.2643 10.9215 36.0027 15.1184 36.0027 19.4944Z" fill="#F3C901"/>
</svg>
