<svg width="48" height="48" viewBox="0 0 48 48" fill="none" xmlns="http://www.w3.org/2000/svg">
<path d="M33.6004 6.5998C33.6004 6.12242 33.7901 5.66458 34.1276 5.32701C34.4652 4.98945 34.923 4.7998 35.4004 4.7998H41.4004C41.8778 4.7998 42.3356 4.98945 42.6732 5.32701C43.0108 5.66458 43.2004 6.12242 43.2004 6.5998V12.5998C43.2004 13.0772 43.0108 13.535 42.6732 13.8726C42.3356 14.2102 41.8778 14.3998 41.4004 14.3998C40.923 14.3998 40.4652 14.2102 40.1276 13.8726C39.7901 13.535 39.6004 13.0772 39.6004 12.5998V10.9438L28.8724 21.6718C28.5349 22.0089 28.0774 22.1982 27.6004 22.1982C27.1234 22.1982 26.6659 22.0089 26.3284 21.6718L20.4004 15.7438L10.2724 25.8718C10.1076 26.0487 9.90891 26.1905 9.68811 26.2889C9.46731 26.3873 9.22896 26.4402 8.98727 26.4444C8.74558 26.4487 8.50552 26.4042 8.28138 26.3137C8.05725 26.2232 7.85365 26.0884 7.68273 25.9175C7.5118 25.7466 7.37705 25.543 7.28652 25.3188C7.19599 25.0947 7.15153 24.8546 7.1558 24.613C7.16006 24.3713 7.21296 24.1329 7.31134 23.9121C7.40972 23.6913 7.55157 23.4926 7.72842 23.3278L19.1284 11.9278C19.4659 11.5907 19.9234 11.4014 20.4004 11.4014C20.8774 11.4014 21.3349 11.5907 21.6724 11.9278L27.6004 17.8558L37.0564 8.3998H35.4004C34.923 8.3998 34.4652 8.21016 34.1276 7.8726C33.7901 7.53503 33.6004 7.07719 33.6004 6.5998ZM9.00042 33.5998C9.47781 33.5998 9.93564 33.7894 10.2732 34.127C10.6108 34.4646 10.8004 34.9224 10.8004 35.3998V41.3998C10.8004 41.8772 10.6108 42.335 10.2732 42.6726C9.93564 43.0102 9.47781 43.1998 9.00042 43.1998C8.52303 43.1998 8.06519 43.0102 7.72763 42.6726C7.39006 42.335 7.20042 41.8772 7.20042 41.3998V35.3998C7.20042 34.9224 7.39006 34.4646 7.72763 34.127C8.06519 33.7894 8.52303 33.5998 9.00042 33.5998ZM20.4004 28.1998C20.4004 27.7224 20.2108 27.2646 19.8732 26.927C19.5356 26.5894 19.0778 26.3998 18.6004 26.3998C18.123 26.3998 17.6652 26.5894 17.3276 26.927C16.9901 27.2646 16.8004 27.7224 16.8004 28.1998V41.3998C16.8004 41.8772 16.9901 42.335 17.3276 42.6726C17.6652 43.0102 18.123 43.1998 18.6004 43.1998C19.0778 43.1998 19.5356 43.0102 19.8732 42.6726C20.2108 42.335 20.4004 41.8772 20.4004 41.3998V28.1998ZM28.2004 31.1998C28.6778 31.1998 29.1356 31.3894 29.4732 31.727C29.8108 32.0646 30.0004 32.5224 30.0004 32.9998V41.3998C30.0004 41.8772 29.8108 42.335 29.4732 42.6726C29.1356 43.0102 28.6778 43.1998 28.2004 43.1998C27.723 43.1998 27.2652 43.0102 26.9276 42.6726C26.5901 42.335 26.4004 41.8772 26.4004 41.3998V32.9998C26.4004 32.5224 26.5901 32.0646 26.9276 31.727C27.2652 31.3894 27.723 31.1998 28.2004 31.1998ZM39.6004 23.3998C39.6004 22.9224 39.4108 22.4646 39.0732 22.127C38.7356 21.7894 38.2778 21.5998 37.8004 21.5998C37.323 21.5998 36.8652 21.7894 36.5276 22.127C36.1901 22.4646 36.0004 22.9224 36.0004 23.3998V41.3998C36.0004 41.8772 36.1901 42.335 36.5276 42.6726C36.8652 43.0102 37.323 43.1998 37.8004 43.1998C38.2778 43.1998 38.7356 43.0102 39.0732 42.6726C39.4108 42.335 39.6004 41.8772 39.6004 41.3998V23.3998Z" fill="#F3C901"/>
</svg>
