<svg width="35" height="35" viewBox="0 0 35 35" fill="none" xmlns="http://www.w3.org/2000/svg">
<path d="M17.4997 19.5416L10.3538 26.6875C10.0865 26.9548 9.7462 27.0885 9.33301 27.0885C8.91981 27.0885 8.57954 26.9548 8.31217 26.6875C8.04481 26.4201 7.91113 26.0798 7.91113 25.6666C7.91113 25.2535 8.04481 24.9132 8.31217 24.6458L15.458 17.5L8.31217 10.3541C8.04481 10.0868 7.91113 9.74651 7.91113 9.33331C7.91113 8.92012 8.04481 8.57984 8.31217 8.31248C8.57954 8.04512 8.91981 7.91144 9.33301 7.91144C9.7462 7.91144 10.0865 8.04512 10.3538 8.31248L17.4997 15.4583L24.6455 8.31248C24.9129 8.04512 25.2531 7.91144 25.6663 7.91144C26.0795 7.91144 26.4198 8.04512 26.6872 8.31248C26.9545 8.57984 27.0882 8.92012 27.0882 9.33331C27.0882 9.74651 26.9545 10.0868 26.6872 10.3541L19.5413 17.5L26.6872 24.6458C26.9545 24.9132 27.0882 25.2535 27.0882 25.6666C27.0882 26.0798 26.9545 26.4201 26.6872 26.6875C26.4198 26.9548 26.0795 27.0885 25.6663 27.0885C25.2531 27.0885 24.9129 26.9548 24.6455 26.6875L17.4997 19.5416Z" fill="#F3C901"/>
</svg>
