<svg width="32" height="32" viewBox="0 0 32 32" fill="none" xmlns="http://www.w3.org/2000/svg">
<path d="M24.7027 24.2385C24.8979 24.0432 24.8979 23.7266 24.7027 23.5313L17.278 16.1067C17.0828 15.9115 17.0828 15.5949 17.278 15.3996L24.4853 8.19239C24.6805 7.99713 24.6805 7.68054 24.4853 7.48528L24.2676 7.26759C24.0723 7.07232 23.7557 7.07232 23.5605 7.26759L16.3532 14.4748C16.158 14.6701 15.8414 14.6701 15.6461 14.4748L8.43921 7.26789C8.24395 7.07263 7.92737 7.07263 7.73211 7.26789L7.51472 7.48528C7.31946 7.68054 7.31946 7.99713 7.51472 8.19239L14.7216 15.3993C14.9169 15.5946 14.9169 15.9112 14.7216 16.1064L7.29702 23.531C7.10176 23.7263 7.10176 24.0429 7.29702 24.2381L7.51472 24.4558C7.70998 24.6511 8.02656 24.6511 8.22183 24.4558L15.6464 17.0312C15.8417 16.836 16.1583 16.836 16.3536 17.0312L23.7782 24.4558C23.9734 24.6511 24.29 24.6511 24.4853 24.4558L24.7027 24.2385Z" fill="#050505"/>
</svg>
